<?xml version="1.0" standalone="no"?>
<!DOCTYPE svg PUBLIC "-//W3C//DTD SVG 20010904//EN"
 "http://www.w3.org/TR/2001/REC-SVG-20010904/DTD/svg10.dtd">
<svg version="1.0" xmlns="http://www.w3.org/2000/svg" style="fill: red; stroke: blue; stroke-width: 2"
 width="920.000000pt" height="800.000000pt" viewBox="0 0 920.000000 800.000000"
 preserveAspectRatio="xMidYMid meet">

<g transform="translate(0.000000,800.000000) scale(0.100000,-0.100000)"
fill="#000000" stroke="none">
<path d="M3068 7982 c-44 -28 -188 -254 -188 -294 0 -8 -12 -30 -26 -51 -15
-23 -29 -61 -34 -96 -4 -32 -16 -73 -25 -91 -9 -18 -19 -58 -22 -89 -3 -31
-12 -68 -19 -83 -8 -15 -14 -57 -14 -93 0 -53 -4 -73 -21 -93 -17 -22 -20 -38
-17 -92 3 -62 2 -65 -24 -78 -38 -18 -36 -46 7 -142 41 -91 41 -94 15 -127
-11 -14 -20 -30 -20 -36 0 -5 29 -39 65 -74 36 -35 84 -90 107 -121 23 -31 77
-97 121 -146 43 -49 87 -105 97 -125 26 -51 72 -92 170 -149 135 -80 125 -66
111 -158 -21 -139 -17 -131 -83 -166 -33 -17 -93 -63 -133 -100 -82 -76 -109
-130 -145 -284 -26 -109 -39 -134 -117 -219 -36 -38 -87 -104 -114 -145 -47
-71 -57 -97 -93 -235 -8 -33 -31 -112 -50 -176 -19 -64 -46 -167 -60 -229 -17
-75 -37 -134 -62 -178 -36 -67 -36 -67 -25 -133 13 -78 6 -126 -39 -271 -39
-126 -39 -140 5 -161 20 -9 38 -24 41 -32 3 -8 -13 -55 -36 -105 -35 -75 -41
-99 -36 -130 4 -29 1 -43 -14 -63 -29 -37 -42 -76 -45 -133 -1 -33 -14 -75
-34 -118 -27 -58 -30 -72 -22 -102 6 -22 6 -36 -1 -40 -17 -11 -45 -85 -53
-139 -7 -52 -30 -102 -89 -201 -33 -54 -36 -65 -35 -134 0 -41 4 -93 8 -115
l8 -40 7 30 c17 71 46 98 57 53 5 -22 6 -22 12 -3 3 11 11 47 16 80 25 154 51
247 80 296 18 28 34 71 37 97 4 26 17 66 31 90 13 23 31 77 39 120 10 55 20
82 36 93 17 13 22 31 27 91 5 60 11 80 32 105 19 23 28 50 37 112 6 45 16 90
22 101 14 26 25 20 108 -56 67 -60 86 -61 76 -4 -38 233 -39 247 -39 580 1
300 3 348 23 457 24 138 43 191 69 199 10 3 53 19 97 35 43 16 81 28 83 25 3
-3 -3 -83 -12 -179 -9 -97 -14 -201 -11 -234 3 -32 10 -116 15 -188 13 -167
17 -195 52 -334 19 -77 29 -142 29 -192 l0 -77 -61 -68 c-151 -166 -198 -288
-219 -559 -21 -286 -74 -587 -122 -703 -30 -71 -30 -73 -18 -158 6 -48 11
-144 11 -215 -1 -70 2 -135 5 -143 3 -9 25 -18 50 -22 69 -10 73 -18 58 -114
-9 -58 -10 -88 -3 -102 8 -14 6 -33 -7 -71 -10 -29 -21 -86 -24 -127 -4 -41
-14 -104 -23 -140 -8 -36 -20 -92 -25 -125 -5 -33 -16 -89 -25 -125 -9 -36
-25 -114 -37 -175 -12 -60 -34 -171 -50 -245 -23 -113 -26 -141 -16 -169 18
-55 34 -49 41 16 4 32 8 64 11 71 8 25 28 6 43 -42 9 -26 21 -47 26 -47 6 1
10 75 11 199 1 214 9 260 59 332 23 34 25 41 16 81 -16 67 -13 87 14 111 23
20 25 28 25 119 0 54 4 101 10 104 5 3 10 43 10 88 1 52 6 91 15 107 9 16 14
55 15 107 0 45 3 88 6 97 9 23 37 20 94 -9 51 -26 90 -32 90 -15 0 6 -17 45
-39 88 -45 89 -63 166 -86 349 -13 113 -34 540 -35 724 l0 55 59 42 c33 23 77
62 97 87 44 51 54 46 54 -29 0 -102 64 -460 120 -671 42 -160 122 -364 192
-490 54 -97 77 -125 187 -235 96 -95 153 -163 238 -285 269 -383 526 -670 662
-737 62 -30 192 -32 266 -4 166 64 284 176 528 501 115 154 223 285 301 366
161 166 215 231 266 314 23 39 46 72 50 75 12 8 110 209 137 279 64 172 130
479 157 745 8 76 18 141 21 144 3 4 24 -15 46 -40 22 -26 69 -68 104 -94 l65
-48 0 -80 c-1 -241 -20 -466 -55 -643 -53 -265 -93 -409 -137 -497 -28 -55
-10 -65 42 -21 100 84 146 52 134 -94 -4 -51 -3 -85 5 -99 9 -16 8 -44 -1
-113 -9 -70 -9 -95 0 -110 8 -12 12 -65 12 -146 0 -112 3 -131 20 -153 14 -18
20 -41 20 -84 0 -41 6 -68 20 -90 23 -38 43 -186 34 -261 -2 -27 -12 -76 -21
-108 -9 -31 -13 -60 -9 -64 3 -4 20 4 37 16 49 36 54 19 10 -34 -50 -60 -56
-105 -16 -105 101 0 135 264 63 474 -18 51 -19 63 -8 98 12 36 11 43 -14 97
-23 47 -27 66 -21 99 5 31 1 52 -14 87 -31 71 -35 109 -17 156 16 39 16 44 -4
95 -24 65 -26 124 -5 165 14 26 14 39 1 112 -8 45 -12 85 -9 90 2 4 25 7 51 7
83 0 86 9 57 199 -8 54 -14 132 -13 173 6 270 -1 373 -42 616 -40 238 -40 242
-24 292 30 91 0 247 -68 352 -16 26 -40 69 -53 95 -14 27 -58 90 -100 142 -51
64 -75 102 -75 120 1 27 9 50 58 171 48 118 55 199 53 646 -1 453 -2 446 65
394 21 -16 48 -38 59 -49 11 -10 34 -27 50 -37 17 -10 32 -21 35 -24 3 -3 20
-16 37 -28 23 -17 37 -38 48 -75 68 -229 79 -734 20 -960 -23 -91 -31 -137
-21 -137 2 0 30 10 61 22 56 21 58 21 71 3 9 -12 14 -47 14 -102 0 -51 5 -95
14 -111 7 -15 16 -62 18 -104 3 -43 11 -84 18 -93 7 -8 16 -52 21 -97 19 -184
27 -229 42 -246 25 -27 43 -77 76 -210 34 -133 37 -159 19 -197 -19 -41 0 -41
42 0 29 28 40 34 40 22 0 -9 7 -17 15 -17 8 0 15 6 15 13 0 37 -55 207 -88
274 -43 85 -82 223 -82 289 0 23 -7 61 -15 84 -8 23 -15 73 -15 110 0 37 -7
84 -15 103 -8 20 -15 56 -15 79 0 24 -10 76 -21 116 -12 40 -20 75 -17 77 3 3
29 8 58 12 30 3 54 12 57 20 3 7 -6 62 -21 121 -14 59 -33 151 -42 206 l-16
98 26 25 c34 31 33 44 -9 112 -26 42 -39 79 -50 144 -28 160 -64 304 -90 367
-22 52 -24 67 -15 94 21 64 -24 198 -104 310 -47 66 -89 103 -198 175 -36 25
-72 56 -78 70 -7 14 -16 71 -21 126 -5 55 -16 121 -25 148 -14 43 -97 166
-112 167 -4 1 -28 20 -54 43 -46 41 -49 46 -83 171 -25 93 -32 132 -25 141 6
7 34 19 63 25 116 28 191 82 283 205 73 97 154 219 154 231 0 4 47 56 105 114
58 59 105 111 105 117 0 5 -11 16 -25 23 -34 18 -32 37 16 99 51 69 51 107 -1
133 l-34 18 -2 117 c-1 137 -15 243 -38 295 -9 21 -16 54 -16 75 0 36 -14 92
-60 238 -10 33 -37 99 -59 147 -33 71 -48 92 -85 118 -53 36 -124 63 -144 55
-20 -7 1 -31 35 -40 l27 -6 -25 -12 c-33 -17 -30 -39 6 -49 17 -4 45 -22 62
-40 47 -49 103 -148 103 -182 0 -17 9 -51 20 -75 11 -24 20 -58 20 -75 0 -18
7 -52 15 -77 17 -51 42 -176 54 -269 5 -36 14 -85 20 -109 9 -33 10 -46 1 -55
-12 -11 -39 15 -84 79 -10 15 -22 23 -26 18 -4 -4 -13 -53 -19 -108 -24 -210
-74 -399 -152 -575 l-31 -68 -81 -7 c-84 -7 -187 -25 -243 -43 -17 -5 -37 -6
-44 -2 -7 4 -21 39 -30 77 -46 177 -122 319 -237 438 -77 80 -261 229 -299
242 -17 6 -54 34 -84 62 l-53 51 10 57 c18 97 -11 170 -81 208 -72 39 -38 52
84 31 50 -9 96 -13 102 -10 10 6 55 -4 123 -28 17 -5 50 -14 75 -19 25 -6 57
-16 72 -24 14 -8 38 -15 52 -15 15 0 43 -7 63 -15 19 -8 66 -18 102 -21 63 -6
68 -5 100 22 54 45 81 115 81 208 0 125 -17 205 -53 240 l-30 30 -18 -22 c-26
-33 -33 -115 -19 -256 7 -70 9 -130 6 -134 -17 -16 -143 -7 -192 15 -53 23
-157 55 -244 74 -30 7 -74 18 -98 26 -23 7 -51 13 -60 13 -10 0 -28 7 -41 16
-35 25 -163 15 -227 -17 -39 -19 -50 -30 -52 -51 -4 -34 -16 -35 -102 -7 -91
30 -303 38 -382 15 -77 -22 -86 -21 -102 18 -18 43 -48 60 -95 52 -20 -3 -51
0 -69 6 -27 10 -37 9 -63 -6 -23 -14 -41 -16 -79 -11 -40 5 -51 4 -56 -8 -3
-9 -24 -19 -46 -22 -23 -4 -55 -16 -72 -26 -17 -10 -45 -19 -62 -19 -18 0 -48
-12 -70 -27 -73 -50 -148 -28 -174 53 -9 26 -7 48 10 112 23 94 26 169 6 216
-24 58 -86 85 -119 51 -35 -34 -29 -256 9 -372 22 -69 74 -129 122 -143 75
-20 182 -5 251 38 19 12 39 18 44 15 5 -3 32 6 60 21 60 30 177 44 242 28 l40
-9 -27 -12 c-16 -6 -39 -15 -52 -21 -41 -15 -58 -53 -65 -146 l-7 -86 -64 -56
c-114 -99 -361 -345 -423 -422 -72 -90 -118 -183 -151 -309 -14 -52 -30 -99
-35 -104 -7 -7 -37 -5 -88 6 -43 10 -118 21 -167 26 -50 5 -94 15 -101 22 -16
17 -65 146 -94 244 -31 108 -61 271 -68 365 -3 47 -9 91 -13 98 -4 9 -19 -4
-46 -39 -67 -90 -96 -93 -75 -9 7 28 13 73 13 100 -1 28 5 70 12 95 8 24 11
64 9 88 -4 32 1 57 16 92 11 26 21 60 21 76 0 16 9 52 20 81 11 29 20 72 20
95 0 34 8 51 45 96 48 59 101 104 153 131 44 23 40 36 -12 36 -25 0 -47 4 -50
8 -2 4 9 27 25 51 44 66 39 87 -13 53z m1326 -628 c20 -20 20 -63 0 -114 -15
-38 -15 -42 0 -59 35 -39 3 -55 -54 -26 -57 30 -63 129 -10 185 32 34 42 36
64 14z m624 -27 c12 -12 32 -56 45 -96 l24 -73 -22 -14 c-13 -8 -35 -16 -51
-17 -32 -2 -37 13 -48 146 -6 71 -5 77 12 77 10 0 28 -10 40 -23z m-691 -222
c62 -18 82 -38 65 -66 -7 -10 -12 -25 -12 -32 0 -7 -11 -28 -25 -47 -16 -21
-25 -47 -25 -70 0 -19 -7 -46 -16 -59 -19 -27 -52 -142 -64 -224 -10 -71 -55
-151 -89 -155 -14 -2 -33 6 -50 21 -14 13 -34 27 -43 30 -26 9 -22 26 17 87
19 30 35 60 35 66 0 7 19 40 41 74 62 92 112 275 81 294 -16 10 -150 -62 -232
-124 -44 -34 -108 -92 -140 -129 -66 -73 -150 -182 -150 -193 0 -5 -9 -17 -20
-28 -23 -23 -26 -53 -7 -68 10 -9 28 -1 73 33 82 62 156 74 162 27 3 -16 -16
-43 -70 -99 -40 -43 -90 -100 -110 -128 -36 -51 -128 -230 -128 -250 0 -7 -11
-33 -24 -59 -64 -125 -30 -228 97 -292 27 -14 85 -38 131 -54 97 -34 222 -105
239 -134 27 -51 46 -123 40 -162 l-5 -41 103 -73 c238 -170 376 -341 424 -529
14 -56 15 -96 6 -370 -8 -225 -31 -1938 -35 -2526 -1 -105 7 -368 10 -355 2 8
13 164 24 345 14 233 24 608 35 1275 20 1234 21 1328 16 1505 -3 101 -1 157 7
171 19 36 129 164 215 252 87 89 186 167 309 244 l76 47 4 83 c4 78 7 87 45
143 35 53 51 66 129 106 49 26 104 49 123 53 49 9 92 46 125 106 70 128 72
253 7 325 -10 11 -22 31 -26 45 -13 45 -75 149 -124 208 -51 61 -71 93 -71
113 0 21 70 2 140 -41 38 -22 71 -40 74 -40 14 0 5 85 -11 102 -10 11 -26 34
-38 52 -39 65 -98 146 -105 146 -4 0 -47 41 -96 91 -49 50 -103 97 -121 106
-60 28 -133 123 -94 123 4 0 48 -30 98 -67 49 -38 118 -88 151 -112 34 -24
102 -83 151 -130 73 -70 96 -100 125 -163 20 -42 36 -80 36 -84 0 -4 7 -15 16
-25 8 -9 20 -50 26 -91 6 -40 19 -89 29 -110 10 -20 22 -56 25 -80 4 -23 15
-61 25 -83 10 -22 19 -59 19 -83 0 -23 11 -90 25 -148 30 -128 33 -189 8 -197
-10 -3 -63 -31 -118 -61 -55 -31 -109 -60 -121 -65 -11 -5 -38 -21 -59 -35
-21 -14 -47 -26 -57 -26 -30 0 -128 -55 -197 -110 -33 -27 -77 -54 -99 -60
-122 -32 -417 -281 -578 -486 l-64 -82 11 -103 c14 -128 19 -1317 8 -1644 -5
-126 -16 -423 -24 -660 -8 -236 -24 -524 -34 -640 -11 -115 -23 -246 -26 -291
-7 -85 -17 -115 -30 -94 -37 59 -38 884 -3 2715 16 829 18 751 -16 812 -45 81
-245 291 -372 390 -57 44 -206 123 -269 143 -22 7 -47 19 -56 27 -9 7 -52 28
-96 47 -77 32 -168 87 -248 151 -22 17 -51 35 -65 38 -14 4 -39 19 -57 35
l-31 27 8 103 c6 72 20 139 48 230 22 70 51 172 66 227 67 254 75 272 162 385
77 100 430 445 486 477 31 17 114 16 175 -2z m857 -37 c3 -13 7 -69 8 -125 4
-101 4 -102 57 -205 30 -57 62 -115 72 -130 26 -36 24 -56 -7 -70 -14 -7 -32
-27 -40 -47 l-14 -34 -30 28 c-35 34 -80 119 -80 152 0 13 -9 41 -20 63 -11
22 -20 48 -20 58 0 35 -42 187 -61 221 -11 18 -17 41 -14 51 9 28 66 60 107
60 31 0 38 -4 42 -22z m1464 -222 c2 -9 -7 -38 -21 -64 -14 -26 -30 -65 -35
-86 -11 -39 -101 -186 -114 -186 -4 0 6 37 23 83 17 45 42 114 56 152 39 108
81 154 91 101z m-3856 -66 c16 -41 49 -123 73 -182 25 -59 45 -113 45 -120 -1
-16 -38 30 -46 57 -3 11 -24 36 -45 56 -30 28 -39 44 -39 69 0 30 -45 123 -78
162 -20 23 -6 40 31 36 29 -3 33 -9 59 -78z m1935 -102 c11 -13 29 -60 41
-104 19 -68 22 -108 21 -245 0 -204 -15 -539 -28 -639 -5 -41 -13 -164 -17
-272 l-7 -198 82 0 c84 0 121 -10 121 -34 0 -28 -83 -117 -134 -144 -42 -21
-65 -26 -126 -27 -71 0 -78 2 -134 39 -66 44 -142 134 -127 149 5 5 42 13 81
17 120 13 161 66 140 179 -6 31 -15 81 -21 111 -21 121 -8 1002 17 1138 10 53
56 68 91 30z m1548 -467 c12 -20 -88 -48 -114 -32 -16 11 -3 21 43 32 45 10
64 10 71 0z m-2988 -77 c61 -42 78 -70 36 -59 -42 10 -141 56 -154 71 -6 7 -8
18 -4 25 12 18 65 2 122 -37z m60 -599 c83 -49 75 -78 -33 -116 -89 -31 -138
-41 -186 -37 -62 4 -61 27 5 94 100 101 128 109 214 59z m2828 -37 c45 -39 79
-102 71 -134 -7 -28 -55 -40 -119 -30 -74 12 -208 57 -214 72 -15 39 115 121
194 123 23 1 43 -8 68 -31z m-3059 -198 c17 -6 43 -31 61 -58 31 -46 32 -51
42 -207 12 -192 18 -222 43 -239 29 -20 88 -117 88 -144 0 -31 43 -72 77 -73
82 -3 116 12 169 76 l37 46 -6 110 c-5 84 -11 119 -26 143 -11 17 -26 57 -34
88 -8 31 -24 70 -36 86 -26 37 -27 77 -2 118 22 37 73 54 159 54 54 0 64 -3
77 -24 13 -19 14 -32 6 -67 -20 -83 -5 -348 24 -440 3 -10 38 -23 101 -38 62
-15 105 -32 124 -48 l30 -25 45 22 c50 24 102 20 112 -8 5 -17 19 -47 82 -184
17 -37 31 -83 31 -102 0 -24 6 -38 19 -45 10 -6 31 -36 46 -66 15 -31 40 -70
56 -86 83 -85 -14 -215 -201 -269 -41 -12 -102 -35 -134 -51 -53 -27 -68 -30
-145 -29 -164 2 -157 4 -203 -41 -69 -67 -99 -85 -170 -104 l-68 -18 -75 28
c-43 15 -85 25 -98 21 -42 -10 -77 -58 -87 -119 -5 -32 -16 -67 -24 -79 -22
-31 -22 -244 -1 -314 8 -27 15 -59 15 -71 0 -32 27 -53 69 -53 45 0 92 23 157
77 27 23 68 51 92 63 24 11 51 34 60 50 21 36 68 57 147 66 33 3 90 19 127 35
l66 29 59 -34 c32 -19 94 -44 138 -56 120 -32 127 -36 194 -110 82 -92 123
-185 91 -205 -15 -9 -12 -64 6 -115 8 -24 18 -66 21 -91 5 -45 4 -48 -27 -64
-40 -21 -69 -14 -113 28 -28 26 -35 42 -41 87 -4 30 -12 60 -17 66 -6 7 -19
56 -29 108 -19 93 -39 148 -60 161 -5 3 -23 -4 -39 -16 -26 -19 -39 -21 -90
-16 -60 5 -105 25 -164 74 -16 13 -35 23 -42 23 -17 0 -78 -93 -88 -131 -11
-42 -42 -73 -107 -108 -53 -29 -69 -33 -114 -29 -28 3 -58 7 -66 9 -10 3 -16
-8 -21 -41 -7 -55 -35 -110 -55 -110 -27 0 -99 43 -131 78 l-32 35 -12 -26
c-15 -33 6 -196 27 -204 22 -8 39 -100 57 -314 4 -44 56 -139 76 -139 4 0 22
21 39 47 16 27 44 61 61 77 17 17 31 38 31 47 0 30 22 68 43 75 11 3 30 0 44
-7 34 -18 51 -4 71 56 16 46 21 51 67 68 59 22 125 74 155 122 22 36 65 65 95
65 9 0 37 -19 63 -43 61 -56 95 -79 160 -105 130 -52 252 -195 252 -294 0 -74
-60 -144 -114 -134 -51 10 -70 31 -99 103 -15 39 -27 76 -27 83 0 6 -13 42
-30 80 -16 38 -30 78 -30 90 0 17 -4 20 -17 15 -95 -40 -115 -42 -167 -15 -48
24 -66 16 -103 -48 -37 -65 -68 -105 -139 -178 -48 -49 -73 -66 -113 -78 -28
-8 -61 -22 -73 -30 -12 -9 -30 -16 -38 -16 -9 0 -27 -12 -41 -26 -21 -23 -24
-35 -24 -108 0 -66 4 -88 20 -110 56 -81 109 -170 147 -246 55 -111 80 -142
158 -197 61 -43 67 -45 114 -39 28 3 62 14 76 24 14 11 40 27 58 36 24 12 40
33 58 74 14 31 31 63 38 72 7 8 16 42 19 76 6 76 31 161 71 243 25 53 38 67
71 82 108 50 196 -15 182 -133 -8 -67 -30 -102 -91 -147 -58 -43 -101 -90
-111 -121 -3 -11 -11 -20 -16 -20 -5 0 -9 -15 -9 -33 0 -18 -9 -49 -20 -70
-11 -20 -20 -41 -20 -47 0 -19 -105 -120 -149 -143 -25 -12 -47 -29 -49 -36
-5 -15 3 -14 133 14 140 31 291 1 316 -62 6 -15 15 -35 20 -43 5 -8 14 -26 20
-40 6 -14 20 -42 31 -63 26 -49 12 -69 -28 -41 -66 47 -84 56 -158 79 -43 14
-130 32 -192 40 -178 24 -288 52 -344 90 -27 18 -73 47 -102 63 -99 57 -236
215 -294 341 -131 280 -178 430 -224 714 -11 71 -29 163 -40 205 -28 112 -40
292 -47 692 -4 307 -2 385 15 580 26 286 29 582 7 627 -9 17 -22 64 -30 105
-8 40 -21 93 -28 118 -45 141 -52 178 -52 280 0 87 4 115 24 162 12 31 30 59
39 61 10 3 17 5 18 6 1 0 14 -4 30 -9z m3139 -64 l53 -53 7 -89 c9 -103 -7
-304 -31 -384 -46 -159 -64 -237 -78 -350 -19 -148 -24 -368 -12 -533 6 -76 5
-180 -2 -295 -7 -97 -14 -284 -17 -414 -4 -166 -10 -251 -20 -285 -8 -26 -24
-131 -36 -233 -20 -185 -25 -209 -53 -286 -8 -23 -22 -86 -31 -140 -10 -61
-27 -124 -45 -163 -17 -35 -30 -69 -30 -76 0 -17 -77 -173 -105 -210 -11 -16
-39 -59 -60 -95 -22 -35 -84 -110 -140 -167 -147 -150 -202 -171 -540 -208
-197 -22 -225 -29 -319 -76 -43 -21 -85 -39 -92 -39 -18 0 -18 43 1 106 12 40
24 57 65 88 68 52 110 65 208 66 102 0 112 13 54 68 -22 21 -42 51 -46 68 -4
16 -24 65 -46 108 -22 44 -40 92 -40 107 0 21 -10 34 -41 56 -62 41 -79 81
-78 178 1 101 8 126 40 144 23 13 30 12 65 -5 51 -27 101 -101 109 -162 23
-193 76 -375 126 -435 86 -104 251 -124 347 -41 22 19 45 34 51 34 6 0 22 22
35 48 14 27 36 56 50 66 14 9 26 22 26 29 0 8 11 24 25 37 14 13 25 34 25 47
0 13 10 29 24 38 14 9 29 29 34 45 6 15 42 60 81 99 76 76 84 97 57 149 -24
45 -71 83 -158 126 -45 23 -86 49 -92 60 -14 24 -48 58 -72 72 -11 6 -29 26
-41 45 -12 19 -33 45 -47 59 -14 14 -26 32 -26 40 -1 19 -40 65 -62 73 -11 4
-18 17 -18 30 0 27 -13 30 -125 31 -69 1 -151 -33 -164 -68 -5 -11 -13 -57
-19 -102 -15 -110 -23 -127 -76 -158 -42 -24 -50 -26 -88 -16 -22 7 -54 24
-70 40 -24 24 -28 36 -28 82 1 67 23 129 52 148 13 8 46 36 73 63 28 27 71 59
96 72 58 30 109 78 109 102 0 41 49 67 118 64 27 -1 122 -98 122 -124 0 -10 8
-20 18 -24 23 -8 62 -44 62 -58 0 -15 56 -67 98 -91 17 -10 32 -26 32 -36 0
-10 12 -25 28 -35 15 -10 29 -20 32 -24 3 -4 32 -20 65 -37 66 -33 89 -54 100
-92 16 -54 55 -68 76 -27 7 12 18 27 26 32 7 6 22 62 33 130 11 66 27 138 36
160 9 22 20 50 25 63 5 12 15 22 23 22 17 0 26 21 26 60 0 16 -3 35 -6 44 -10
26 -66 19 -137 -19 -36 -19 -70 -35 -75 -35 -5 0 -43 20 -83 43 -41 24 -117
68 -171 96 -131 72 -160 103 -165 178 -5 79 -10 99 -29 117 -21 22 -70 20
-102 -3 -37 -26 -126 -51 -183 -51 -25 0 -51 -6 -57 -12 -5 -7 -22 -71 -36
-142 -32 -151 -43 -177 -94 -211 -55 -36 -95 -42 -121 -16 -19 19 -20 23 -5
62 8 24 26 58 40 77 31 40 34 75 9 102 -46 51 -4 172 94 270 68 68 151 100
308 117 49 6 106 -22 157 -76 17 -17 34 -31 38 -31 10 0 26 -13 77 -61 39 -38
109 -79 135 -79 9 0 24 -17 35 -39 23 -45 29 -47 111 -57 41 -4 71 -14 88 -29
55 -46 92 -52 92 -15 0 10 9 25 21 33 18 13 21 29 26 114 4 68 12 109 24 133
33 62 15 203 -31 245 -11 10 -20 26 -20 35 0 33 -42 119 -61 125 -24 8 -48 1
-127 -37 -35 -16 -89 -35 -119 -41 -52 -11 -58 -10 -102 14 -39 21 -52 37 -83
100 -21 41 -49 85 -64 97 -28 25 -30 25 -137 6 -31 -5 -45 -1 -78 20 -22 15
-74 42 -114 61 -41 19 -100 52 -132 74 -31 23 -64 41 -74 41 -30 0 -49 40 -49
100 0 76 12 112 63 189 24 36 59 99 77 139 18 39 36 72 40 72 4 0 11 23 14 52
8 58 21 88 39 88 7 0 17 10 22 23 8 17 17 21 40 19 92 -8 104 -6 129 17 14 14
26 32 26 42 0 37 37 49 132 42 63 -4 92 -2 102 7 24 19 64 114 76 177 6 35 19
67 34 82 34 37 37 67 15 123 -10 27 -19 60 -19 73 0 23 2 24 48 19 76 -9 137
-32 170 -65 39 -38 39 -49 7 -77 -14 -12 -25 -29 -25 -38 0 -9 -11 -29 -25
-46 -14 -16 -25 -36 -25 -45 0 -8 -11 -28 -25 -44 -25 -31 -27 -37 -44 -179
-12 -95 -7 -148 20 -202 38 -76 104 -89 183 -37 54 36 122 119 143 175 44 116
73 292 73 448 0 59 4 78 21 100 11 14 27 26 36 26 8 0 39 -24 68 -54z m-3375
-291 c0 -23 -107 -185 -121 -185 -5 0 -9 8 -9 18 0 26 98 172 116 172 8 0 14
-2 14 -5z m3730 -189 c38 -56 47 -81 25 -75 -6 2 -15 17 -21 35 -6 17 -34 60
-62 95 -29 35 -52 68 -52 74 0 14 62 -58 110 -129z m-3554 -203 c-9 -91 -34
-206 -48 -218 -13 -13 -4 185 12 263 11 47 13 50 27 36 13 -12 14 -28 9 -81z
m3250 -138 c8 -59 1 -286 -10 -304 -18 -29 -29 26 -34 171 -3 110 -1 152 8
163 20 24 28 18 36 -30z m449 -481 c28 -304 51 -444 74 -444 28 0 1 -13 -54
-25 l-56 -14 8 102 c9 121 8 522 -2 605 -4 31 -4 54 0 51 3 -4 17 -128 30
-275z m-4190 20 c-14 -104 -29 -231 -32 -281 -6 -88 -7 -93 -28 -93 -45 0 -48
21 -21 122 14 51 39 169 56 262 29 163 37 192 46 183 3 -2 -7 -89 -21 -193z
m1831 -218 c64 -64 71 -98 24 -115 -38 -13 -40 -47 -6 -88 53 -64 57 -107 10
-119 -36 -9 -72 3 -139 46 -33 21 -82 48 -110 60 -58 25 -84 46 -96 79 -22 56
35 98 118 85 l44 -6 -6 35 c-9 45 22 77 73 77 28 0 44 -10 88 -54z m668 41
c10 -7 21 -28 25 -47 6 -32 10 -35 52 -41 50 -7 89 -27 89 -45 0 -23 -90 -133
-132 -162 -79 -55 -196 -75 -220 -38 -15 22 -7 67 18 105 27 42 25 62 -12 92
-13 11 -18 11 -21 2 -7 -20 -20 -15 -26 7 -4 15 5 31 29 55 19 19 34 39 34 45
0 31 129 52 164 27z m-2186 -771 c-25 -96 -48 -125 -48 -59 0 54 18 114 43
141 12 13 23 19 24 15 2 -5 -7 -48 -19 -97z m3528 39 c34 -58 64 -156 64 -207
0 -67 -23 -39 -37 45 -7 42 -24 106 -37 142 -13 36 -22 65 -20 65 2 0 15 -20
30 -45z m-3647 -1170 l1 -201 -36 0 -36 0 6 46 c4 25 11 110 16 190 6 80 15
168 22 195 l12 50 7 -40 c4 -22 8 -130 8 -240z m3712 68 c-13 -186 -29 -326
-42 -360 -6 -15 -17 -23 -33 -23 -34 0 -38 11 -22 58 19 53 83 360 92 440 13
119 16 53 5 -115z m-2314 -733 c184 -17 292 -61 327 -133 36 -77 14 -107 -80
-107 -47 0 -58 -16 -29 -40 8 -7 15 -21 15 -33 0 -11 9 -34 19 -51 11 -17 21
-42 23 -56 4 -29 -9 -29 -79 -4 -44 16 -157 126 -173 169 -5 12 -53 57 -107
100 -125 99 -136 111 -122 136 12 24 46 39 74 33 11 -2 71 -8 132 -14z m1107
1 c12 -13 15 -27 11 -41 -10 -33 -165 -185 -212 -209 -23 -12 -47 -31 -54 -42
-6 -12 -22 -33 -34 -48 -13 -14 -34 -42 -47 -61 -27 -39 -61 -60 -100 -60 -27
0 -28 1 -28 60 0 33 8 78 17 101 16 41 16 43 -4 58 -12 9 -35 24 -52 33 -60
33 -33 93 66 145 78 42 152 62 264 72 148 13 154 13 173 -8z"/>
<path d="M3676 4495 c-16 -9 -60 -44 -97 -80 -70 -66 -113 -85 -160 -70 -12 4
-56 39 -96 77 -40 38 -78 66 -83 63 -15 -9 -12 -91 6 -133 13 -32 32 -251 34
-393 0 -45 24 -58 54 -30 28 26 145 81 173 81 12 0 30 -9 40 -19 20 -22 64
-41 93 -41 11 0 45 26 77 59 74 75 99 87 203 95 105 8 164 27 213 67 88 72
103 200 31 260 -9 8 -23 29 -31 47 -17 42 -44 42 -109 0 -79 -50 -174 -71
-174 -37 0 5 -6 9 -12 9 -7 0 -33 14 -58 30 -51 34 -64 36 -104 15z"/>
<path d="M5518 4488 l-56 -61 -50 5 c-27 3 -62 14 -78 25 -40 28 -100 46 -130
39 -14 -4 -30 -18 -36 -34 -6 -15 -19 -45 -29 -67 -9 -22 -23 -80 -30 -128
-12 -83 -11 -89 7 -114 30 -39 126 -89 218 -111 133 -33 195 -60 243 -108 49
-50 63 -52 143 -24 106 37 209 19 234 -41 7 -17 16 -28 19 -23 11 20 47 438
47 562 0 60 -13 67 -51 26 -39 -43 -116 -74 -181 -74 -53 0 -59 2 -72 29 -9
16 -22 31 -31 34 -9 4 -15 19 -15 39 0 60 -10 80 -36 74 -12 -3 -26 -2 -29 4
-12 19 -31 8 -87 -52z"/>
</g>
</svg>
